# xmcd CD database file generated by Grip 2.95
# 
# Track frame offsets:
#       150
#       20222
#       44928
#       72985
#       102381
#       122507
# 
# Disc length: 2007 seconds
# 
# Revision: 3
# Processed by: cddbd v1.4PL0 Copyright (c) Steve Scherf et al.
# Submitted via: Grip 2.95
# 
DISCID=5907d506
DTITLE=Alora Dominion - Venue
DYEAR=1900
DGENRE=
TTITLE0=Break The Sky
TTITLE1=Close Your Eyes
TTITLE2=Don't Give It Up
TTITLE3=Foolagin
TTITLE4=Boom
TTITLE5=Southtown
EXTD=
EXTT0=
EXTT1=
EXTT2=
EXTT3=
EXTT4=
EXTT5=
PLAYORDER=
